<svg width="139" height="24" viewBox="0 0 139 24" fill="none" xmlns="http://www.w3.org/2000/svg">
<g clip-path="url(#clip0_902_3843)">
<path d="M71.9964 24.0001C71.3325 23.8874 70.6566 23.823 70.0128 23.65C69.2087 23.4729 68.4481 23.1368 67.7758 22.6614C67.1035 22.186 66.533 21.581 66.0979 20.8819C65.5913 20.0098 65.339 19.0132 65.3697 18.0051C65.3628 16.5077 65.8956 15.0579 66.8705 13.9213C67.9282 12.6855 69.3838 11.8574 70.9865 11.5796C72.2092 11.259 73.4983 11.2967 74.7001 11.6883C75.2122 11.9098 75.7083 12.1666 76.1848 12.4567C76.2647 12.5053 76.3413 12.5591 76.4141 12.6177C76.39 11.9096 76.5027 11.2497 76.2733 10.606C76.044 9.9622 75.4445 9.70066 74.8168 9.56387C73.0111 9.14887 71.1184 9.35148 69.4415 10.1392C68.842 10.4128 68.2344 10.6945 67.6269 10.9842C67.128 9.62021 66.6291 8.25625 66.1221 6.86413C66.4601 6.67503 66.794 6.4819 67.136 6.30487C68.7224 5.41467 70.4448 4.79206 72.2337 4.46211C73.4045 4.29182 74.593 4.28234 75.7664 4.43394C77.1004 4.54927 78.4059 4.88653 79.6289 5.43178C81.2706 6.13866 82.5704 7.46008 83.25 9.11324C83.5239 9.83811 83.6603 10.6077 83.6524 11.3825C83.6524 13.7121 83.6524 16.0457 83.6524 18.3753V18.7293H85.7929V23.2799C85.7003 23.2799 85.6038 23.304 85.5072 23.304C83.1454 23.304 80.7796 23.304 78.4178 23.304C78.3316 23.3094 78.2459 23.2869 78.1734 23.2398C78.1009 23.1927 78.0456 23.1235 78.0155 23.0425C77.7982 22.5959 77.5528 22.1654 77.3436 21.7831C77.0297 22.0608 76.728 22.3505 76.4021 22.616C75.4427 23.377 74.2791 23.8363 73.0586 23.9357C72.9419 23.9357 72.8252 23.976 72.7085 23.9921L71.9964 24.0001ZM76.382 17.4982C76.5952 16.6573 76.0561 16.2911 75.4163 15.9894C74.7799 15.7138 74.0653 15.678 73.4046 15.8888C73.0526 15.9971 72.7449 16.2161 72.5274 16.5134C72.31 16.8106 72.1943 17.1701 72.1975 17.5384C72.1595 17.8812 72.2354 18.2269 72.4136 18.5222C72.5918 18.8175 72.8623 19.0458 73.1833 19.1719C73.5936 19.3439 74.0418 19.4051 74.4831 19.3493C74.9245 19.2935 75.3434 19.1227 75.698 18.8541C76.1768 18.5362 76.5791 18.1661 76.382 17.4982Z" fill="#C81E28"/>
<path d="M62.4367 18.6447H64.1065V23.2999H55.11C55.11 23.1872 55.11 23.0706 55.11 22.9579C55.11 19.715 55.11 16.4721 55.11 13.2291C55.1164 12.7051 55.0679 12.1819 54.9651 11.668C54.9151 11.2843 54.7375 10.9285 54.461 10.6578C54.1844 10.3871 53.825 10.2172 53.4402 10.1753C52.374 10.0788 51.6458 10.4489 51.2193 11.3099C50.9225 11.9788 50.7848 12.7073 50.8169 13.4384C50.8169 15.1041 50.8169 16.7698 50.8169 18.4395C50.8169 18.4918 50.8169 18.5482 50.837 18.6327H53.392V23.2999C53.3034 23.2999 53.2149 23.2999 53.1264 23.2999C49.6394 23.2999 46.1524 23.2999 42.6654 23.2999C42.4199 23.2999 42.3516 23.2355 42.3516 22.9901C42.3516 21.6261 42.3516 20.2662 42.3516 18.9022C42.3516 18.8218 42.3516 18.7373 42.3516 18.6286H43.8362V10.0063H42.3556V5.37533H42.6412C44.995 5.37533 47.3487 5.37533 49.7024 5.37533C49.7468 5.36659 49.7925 5.36676 49.8369 5.37582C49.8812 5.38487 49.9233 5.40263 49.9608 5.42807C49.9982 5.45352 50.0302 5.48616 50.0549 5.52407C50.0796 5.56198 50.0966 5.60441 50.1048 5.64892C50.3261 6.29267 50.5755 6.92436 50.821 7.58421C51.0865 7.28647 51.3239 6.99276 51.5854 6.72721C52.3579 5.94263 53.1948 5.23048 54.2892 4.96895C56.2325 4.51028 58.1236 4.63098 59.8456 5.77365C60.8562 6.45669 61.5962 7.47144 61.9378 8.64238C62.3277 9.96873 62.5056 11.3483 62.4649 12.7302C62.4649 14.581 62.4649 16.4359 62.4649 18.2867L62.4367 18.6447Z" fill="#C81E28"/>
<path d="M119.924 18.5763V23.3039C119.819 23.3039 119.73 23.3039 119.642 23.3039C117.574 23.3039 115.506 23.3039 113.434 23.3039C113.347 23.321 113.257 23.3043 113.182 23.2572C113.107 23.21 113.053 23.136 113.031 23.0504C112.762 22.3865 112.468 21.7347 112.162 21.0386C111.969 21.2599 111.8 21.441 111.635 21.6381C111.045 22.3809 110.281 22.9672 109.411 23.3454C108.541 23.7236 107.592 23.882 106.646 23.8068C105.545 23.7966 104.454 23.5867 103.427 23.1872C102.796 22.9229 102.224 22.534 101.747 22.0439C101.269 21.5538 100.895 20.9724 100.647 20.3345C100.122 18.9635 99.8613 17.5055 99.8786 16.0375C99.8424 14.1786 99.8786 12.3158 99.8505 10.4569V10.0546H98.3457V5.39941H107.008V5.72934C107.008 8.62222 107.008 11.5151 107.008 14.408C106.975 15.3946 107.098 16.3803 107.37 17.329C107.45 17.6206 107.604 17.8865 107.817 18.1008C108.03 18.315 108.295 18.4703 108.586 18.5514C108.877 18.6325 109.185 18.6366 109.478 18.5634C109.771 18.4902 110.04 18.3421 110.259 18.1337C110.552 17.8986 110.788 17.6018 110.953 17.2644C111.117 16.927 111.204 16.5575 111.209 16.1823C111.233 14.2108 111.209 12.2393 111.209 10.2678C111.204 10.2123 111.196 10.1572 111.185 10.1029H108.851V5.39941H118.153V18.2061C118.153 18.5803 118.153 18.5803 118.523 18.5843L119.924 18.5763Z" fill="#C81E28"/>
<path d="M29.3475 16.1502C29.4247 16.9696 29.8098 17.7292 30.4251 18.2758C31.0404 18.8224 31.8401 19.1153 32.6629 19.0954C34.125 19.1967 35.5865 18.8889 36.8835 18.2062C37.2858 17.9769 37.6882 17.6992 38.0905 17.4257C38.5693 17.9688 39.0602 18.5361 39.5551 19.1034L41.0639 20.8496C40.7701 21.083 40.4885 21.3123 40.1988 21.5296C38.4083 22.8367 36.2953 23.6309 34.0872 23.827C32.8222 23.9879 31.5419 23.9879 30.2769 23.827C26.4023 23.2717 23.4652 20.7812 22.5881 16.8624C22.1235 14.9608 22.1875 12.9685 22.7732 11.1007C23.1839 9.71292 23.9442 8.45387 24.9813 7.44428C26.0183 6.4347 27.2974 5.70844 28.6957 5.33513C31.161 4.57113 33.816 4.69498 36.1995 5.68517C38.2112 6.52205 39.7643 7.88197 40.5207 9.97418C41.0032 11.3186 41.1885 12.7517 41.0639 14.1747C41.0156 14.7299 40.8707 15.2771 40.7782 15.8283C40.7339 16.0778 40.6132 16.1582 40.3477 16.1542C36.8124 16.1542 33.2758 16.1542 29.7378 16.1542L29.3475 16.1502ZM29.4521 12.5291H34.8637C34.8637 10.6059 34.0067 9.773 32.4898 9.66839C30.6028 9.55975 29.5809 10.8634 29.4521 12.5452V12.5291Z" fill="#C81E28"/>
<path d="M125.958 21.1877C125.862 21.8194 125.765 22.4511 125.677 23.0868C125.677 23.2236 125.62 23.3081 125.459 23.3081H121.251C121.218 23.3022 121.187 23.2913 121.158 23.2759V16.8987H125.93C126.019 17.9891 126.755 18.5081 127.668 18.8662C128.542 19.2529 129.513 19.3652 130.452 19.1881C130.681 19.169 130.896 19.0698 131.059 18.9078C131.221 18.7458 131.322 18.5316 131.342 18.3029C131.395 18.113 131.372 17.9099 131.278 17.7366C131.184 17.5632 131.027 17.433 130.839 17.3735C130.223 17.124 129.599 16.9067 128.968 16.7096C127.761 16.3072 126.526 16.0015 125.327 15.5911C124.519 15.3183 123.776 14.8813 123.146 14.3076C122.434 13.6946 121.896 12.9046 121.586 12.0174C121.277 11.1302 121.207 10.177 121.384 9.25411C121.488 8.62281 121.731 8.02231 122.094 7.49524C122.457 6.96817 122.931 6.52745 123.484 6.20431C125.58 4.87254 127.829 4.52653 130.191 5.42779C131.373 5.83387 132.372 6.64852 133.007 7.7252C133.112 6.9205 133.204 6.152 133.301 5.38754H137.691V11.7688H133.06C132.888 11.0618 132.499 10.4263 131.948 9.95154C131.396 9.47675 130.71 9.18644 129.986 9.12133C129.54 9.03238 129.078 9.06574 128.65 9.21789C128.443 9.30064 128.266 9.44336 128.141 9.62765C128.017 9.81194 127.95 10.0294 127.95 10.2519C127.925 10.442 127.965 10.635 128.065 10.799C128.164 10.9629 128.317 11.0879 128.497 11.1532C129.302 11.4911 130.106 11.8171 130.911 12.1188C132.223 12.6097 133.575 13.004 134.846 13.5793C136.117 14.1547 137.16 14.9312 137.727 16.2308C138.172 17.2065 138.29 18.2997 138.064 19.3479C137.838 20.3961 137.279 21.3433 136.472 22.0487C135.401 22.9549 134.081 23.5159 132.685 23.6581C131.44 23.8589 130.164 23.7483 128.972 23.3363C127.816 22.9558 126.805 22.2297 126.075 21.2561C126.057 21.223 126.044 21.1879 126.035 21.1515L125.958 21.1877Z" fill="#C81E28"/>
<path d="M21.9916 9.89765C21.4444 9.89765 20.9093 9.89765 20.3822 9.89765C20.3068 9.88849 20.2305 9.90599 20.1666 9.94713C20.1026 9.98828 20.0551 10.0505 20.0322 10.123C18.8332 12.7221 17.6262 15.3199 16.4111 17.9164C15.6064 19.6385 14.8017 21.3525 13.997 23.0745C13.9704 23.1573 13.9155 23.2281 13.8419 23.2744C13.7683 23.3208 13.6808 23.3397 13.5946 23.328C11.9235 23.328 10.2538 23.328 8.58543 23.328C8.49999 23.3384 8.41355 23.3194 8.3404 23.274C8.26724 23.2286 8.21175 23.1597 8.18308 23.0785C6.66757 20.0288 5.14535 16.983 3.61643 13.9412C2.98072 12.6752 2.35441 11.4051 1.73747 10.131C1.71119 10.0544 1.65913 9.98918 1.59015 9.94662C1.52118 9.90406 1.43958 9.88675 1.35927 9.89765C0.896567 9.89765 0.437895 9.89765 -0.0449219 9.89765V5.39941H9.88098V5.66095C9.88098 6.96858 9.88098 8.27619 9.88098 9.58784C9.88757 9.67219 9.8674 9.75649 9.82334 9.82872C9.77928 9.90095 9.71357 9.95744 9.63555 9.99018C9.05215 10.2839 8.4808 10.5937 7.88532 10.9075L10.9392 17.3049L13.993 10.9116C13.4297 10.6098 12.8744 10.304 12.3071 10.0224C12.2067 9.98526 12.1216 9.91554 12.0654 9.82437C12.0093 9.7332 11.9853 9.62585 11.9973 9.51944C11.9973 8.24803 11.9973 6.97662 11.9973 5.7052V5.39941H21.9353L21.9916 9.89765Z" fill="#C81E28"/>
<path d="M97.0696 18.7293C97.0696 18.8258 97.0696 18.8942 97.0696 18.9667C97.0696 20.3226 97.0696 21.6745 97.0696 23.0304C97.0696 23.2195 97.0214 23.3241 96.8363 23.3603C96.0879 23.5092 95.3436 23.6822 94.5872 23.7948C93.4104 23.9872 92.2113 24.0008 91.0304 23.8351C89.767 23.6299 88.6807 23.135 87.9846 22.0044C87.5735 21.323 87.3307 20.5533 87.2765 19.7593C87.1799 18.5764 87.0834 17.3895 87.0633 16.2066C87.0311 14.2632 87.0633 12.3159 87.0633 10.3725V10.0185H85.1602V5.39952H87.0713V5.06959C87.0713 4.14822 87.0713 3.22684 87.0713 2.30547C87.0648 2.27481 87.0645 2.24318 87.0703 2.2124C87.0761 2.18161 87.088 2.15228 87.1052 2.1261C87.1224 2.09992 87.1446 2.0774 87.1706 2.05985C87.1965 2.04229 87.2257 2.03005 87.2564 2.02382L93.4405 0.0603656C93.516 0.0414263 93.5926 0.0266572 93.6698 0.0161133V0.358098C93.6698 1.9353 93.6698 3.50848 93.6698 5.08568C93.6698 5.32306 93.7302 5.39952 93.9796 5.39549C95.0016 5.39549 96.0276 5.39549 97.0737 5.39549V10.0185H93.694C93.694 10.1472 93.694 10.2438 93.694 10.3444C93.694 12.7102 93.694 15.0773 93.694 17.4458C93.6956 17.7149 93.7144 17.9837 93.7503 18.2505C93.8589 19.0552 94.3216 19.4334 95.1303 19.2845C95.6896 19.1799 96.2328 18.9988 96.784 18.846C96.8484 18.8138 96.9489 18.7735 97.0696 18.7293Z" fill="#C81E28"/>
</g>
<defs>
<clipPath id="clip0_902_3843">
<rect width="138.162" height="24" fill="white"/>
</clipPath>
</defs>
</svg>
